<?xml version="1.0" encoding="utf-8"?>
<COLLADA xmlns="http://www.collada.org/2005/11/COLLADASchema" version="1.4.1" xmlns:xsi="http://www.w3.org/2001/XMLSchema-instance">
  <asset>
    <contributor>
      <author>Blender User</author>
      <authoring_tool>Blender 3.6.23 commit date:2025-06-16, commit time:11:52, hash:e467db79ca8c</authoring_tool>
    </contributor>
    <created>2026-04-18T17:07:03</created>
    <modified>2026-04-18T17:07:03</modified>
    <unit name="meter" meter="1"/>
    <up_axis>Z_UP</up_axis>
  </asset>
  <library_effects>
    <effect id="夹子-effect">
      <profile_COMMON>
        <technique sid="common">
          <lambert>
            <emission>
              <color sid="emission">0 0 0 1</color>
            </emission>
            <diffuse>
              <color sid="diffuse">0.4072402 0.4072402 0.4072402 1</color>
            </diffuse>
            <reflectivity>
              <float sid="specular">1</float>
            </reflectivity>
            <index_of_refraction>
              <float sid="ior">1.5</float>
            </index_of_refraction>
          </lambert>
        </technique>
      </profile_COMMON>
    </effect>
  </library_effects>
  <library_images/>
  <library_materials>
    <material id="夹子-material" name="夹子">
      <instance_effect url="#夹子-effect"/>
    </material>
  </library_materials>
  <library_geometries>
    <geometry id="圆角9_009-mesh" name="圆角9.009">
      <mesh>
        <source id="圆角9_009-mesh-positions">
          <float_array id="圆角9_009-mesh-positions-array" count="1518">0.01490867 0.008489847 -0.03152245 0.01689076 0.008470714 -0.03147405 0.01490044 -0.004544138 -0.03127515 0.01688563 -0.004586815 -0.03129649 0.02076792 -0.004599988 -0.001999974 0.02076792 -0.004599988 0 0.0183866 -0.004599988 0 0.0183866 -0.004599988 -0.001999974 0.02264791 -0.004599988 -0.001999974 0.02264791 -0.004599988 0 0.0245279 -0.004599988 -0.001999974 0.0245279 -0.004599988 0 0.02640795 -0.004599988 -0.001999974 0.02640795 -0.004599988 0 0.02828794 -0.004599988 -0.001999974 0.02828794 -0.004599988 0 0.03016793 -0.004599988 -0.001999974 0.03016793 -0.004599988 0 0.03204792 -0.004599988 -0.001999974 0.03204792 -0.004599988 0 0.03392791 -0.004599988 -0.001999974 0.03392791 -0.004599988 0 0.0358079 -0.004599988 -0.001999974 0.0358079 -0.004599988 0 0.03768795 -0.004599988 -0.001999974 0.03768795 -0.004599988 0 0.03956794 -0.004599988 -0.001999974 0.03956794 -0.004599988 0 0.04144793 -0.004599988 -0.001999974 0.04144793 -0.004599988 0 0.04332792 -0.004599988 -0.001999974 0.04332792 -0.004599988 0 0.04520791 -0.004599988 -0.001999974 0.04520791 -0.004599988 0 0.0169 0.00982213 -0.03139573 0.0169 -0.0038836 -0.03246539 0.0169 0.007883608 -0.03246539 0.0169 0.007658123 -0.02135348 0.0169 0.009741842 -0.02135348 0.0169 -0.00361514 -0.008181214 0.0169 -0.003658115 -0.01893717 0.0169 -0.005741834 -0.01893717 0.0169 0.007658123 -0.01893717 0.0169 0.009593784 -0.008312463 0.0169 0.009741842 -0.01893717 0.0169 -0.005822122 -0.03139573 0.0169 -0.005741834 -0.02135348 0.0169 -0.003658115 -0.02135348 0.0169 0.005137801 -0.008057534 0.0169 0.005137801 -0.03483313 0.0169 -0.001137793 -0.03483313 0.0169 -0.001137793 -0.008057534 0.0169 -0.008119463 -0.01179099 0.0169 -0.002910435 -0.03704994 0.0169 0.01185458 -0.006784856 0.0169 0.01185458 -0.0321058 0.0169 -0.004599988 -0.002862691 0.0169 0.008910477 -0.003840744 0.0169 -0.01277613 -0.002797305 0.0169 -0.00785458 -0.0321058 0.0169 0.006910443 -0.03704994 0.0169 -0.005593836 -0.008312463 0.0169 0.007615149 -0.008181214 0.01690006 0.008123338 -0.003726422 0.01490002 0.008123636 -0.003724098 0.01690006 0.009593665 -0.004260063 0.01490062 0.009566187 -0.004293739 0.0169 -0.004599988 -0.003745317 0.01489996 0.00812155 -0.003745317 0.0169 0.00812155 -0.003745317 0.01489996 -0.004599988 -0.003745317 0.01489996 -0.004599988 -0.003240942 0.0169 -0.004599988 -0.003240942 0.0169 -0.0126 -0.003159344 0.01489996 -0.0126 -0.003088891 0.01489996 -0.009033501 -0.009881258 0.0169 -0.009033501 -0.009881258 0.0169 -0.0123291 -0.004211366 0.01489996 -0.0123291 -0.004211366 0.0169 -0.007949948 -0.01390147 0.0169 -0.007949948 -0.03131687 0.01489996 -0.007949948 -0.01390147 0.01489996 -0.007949948 -0.03131687 0.01689934 -0.007406771 -0.03276592 0.01490008 -0.00738126 -0.03274512 0.01689988 -0.007967114 -0.03131854 0.01490038 -0.008036077 -0.03132599 0.01489996 -0.007364213 -0.03273111 0.0169 -0.007364213 -0.03273111 0.01489996 -0.003535747 -0.03655952 0.0169 -0.003535747 -0.03655952 0.01690006 -0.002123355 -0.03716427 0.01490008 -0.002123713 -0.03716731 0.01690006 -0.003595948 -0.03663349 0.01490068 -0.003563821 -0.03659397 0.0169 0.006121516 -0.03714531 0.01489996 -0.002121567 -0.03714531 0.01489996 0.006121516 -0.03714531 0.0169 -0.002121567 -0.03714531 0.01690006 0.007546484 -0.03657257 0.01490002 0.007550954 -0.03657799 0.01490038 0.006130278 -0.03722906 0.01689988 0.006126701 -0.03719741 0.0169 0.007535755 -0.03655952 0.01489996 0.007535755 -0.03655952 0.01489996 0.01136416 -0.03273111 0.0169 0.01136416 -0.03273111 0.01689934 0.01200473 -0.03132236 0.01490008 0.01197195 -0.03131908 0.01689988 0.01137745 -0.03274208 0.01490038 0.01143151 -0.03278559 0.01489996 0.01194995 -0.03131687 0.0169 0.01194995 -0.03131687 0.01489996 0.01194995 -0.007573723 0.0169 0.01194995 -0.007573723 0.01689988 0.01137721 -0.006148755 0.01490008 0.01138126 -0.006145536 0.01689958 0.01203358 -0.007565021 0.01490062 0.01200211 -0.007568538 0.01489996 0.009535729 -0.004331111 0.0169 0.009535729 -0.004331111 0.0169 0.01136416 -0.006159543 0.01489996 0.01136416 -0.006159543 0.01489996 -0.01276779 -0.002833724 0.01489996 0.00982213 -0.03139573 0.01489996 -0.0038836 -0.03246539 0.01489996 0.008910477 -0.003840744 0.01489996 -0.004599988 -0.002988755 0.01489996 -0.008119463 -0.01179099 0.01489996 -0.00785458 -0.0321058 0.01489996 -0.002910435 -0.03704994 0.01489996 0.006910443 -0.03704994 0.01489996 0.01185458 -0.0321058 0.01489996 0.01185458 -0.006784856 0.01489996 0.009741842 -0.02135348 0.01489996 0.007658123 -0.02135348 0.01489996 0.007883608 -0.03246539 0.01489996 -0.003658115 -0.01893717 0.01489996 -0.00361514 -0.008181214 0.01489996 -0.005741834 -0.01893717 0.01489996 0.009593784 -0.008312463 0.01489996 0.007658123 -0.01893717 0.01489996 0.009741842 -0.01893717 0.01489996 -0.003658115 -0.02135348 0.01489996 -0.005741834 -0.02135348 0.01489996 -0.005822122 -0.03139573 0.01489996 -0.001137793 -0.03483313 0.01489996 0.005137801 -0.03483313 0.01489996 0.005137801 -0.008057534 0.01489996 -0.001137793 -0.008057534 0.01489996 -0.005593836 -0.008312463 0.01489996 0.007615149 -0.008181214 0.04989999 -0.009771525 0 0.04989999 -0.007428407 0 0.04989999 -0.007428407 -0.001999974 0.04989999 -0.009771525 -0.001999974 0.01763659 -0.0126 -0.001999974 0.01763659 -0.004599988 -0.001999974 0.02076792 -0.004528403 -0.001999974 0.01971811 -0.005594134 -0.001999974 0.02264791 -0.004528403 -0.001999974 0.0245279 -0.004528403 -0.001999974 0.02640795 -0.004528403 -0.001999974 0.02828794 -0.004528403 -0.001999974 0.03016793 -0.004528403 -0.001999974 0.03204792 -0.004528403 -0.001999974 0.03392791 -0.004528403 -0.001999974 0.0358079 -0.004528403 -0.001999974 0.03768795 -0.004528403 -0.001999974 0.03956794 -0.004528403 -0.001999974 0.04144793 -0.004528403 -0.001999974 0.04332792 -0.004528403 -0.001999974 0.04520791 -0.004528403 -0.001999974 0.04980456 -0.00663948 -0.001999974 0.01989996 -0.007449984 -0.001999974 0.04789996 -0.007449984 -0.001999974 0.01989996 -0.01044994 -0.001999974 0.04789996 -0.01044994 -0.001999974 0.04786044 -0.01250457 -0.001999974 0.02170795 -0.006007492 -0.001999974 0.02358794 -0.006007492 -0.001999974 0.02546793 -0.006007492 -0.001999974 0.02734792 -0.006007492 -0.001999974 0.02922791 -0.006007492 -0.001999974 0.03110796 -0.006007492 -0.001999974 0.03298795 -0.006007492 -0.001999974 0.03486794 -0.006007492 -0.001999974 0.03674793 -0.006007492 -0.001999974 0.03862792 -0.006007492 -0.001999974 0.04050791 -0.006007492 -0.001999974 0.04238796 -0.006007492 -0.001999974 0.04426795 -0.006007492 -0.001999974 0.04614794 -0.006007492 -0.001999974 0.04735982 -0.004498898 -0.001999974 0.04980456 -0.01056045 -0.001999974 0.04703283 -0.004599988 0 0.04704248 -0.004599988 -0.001999974 0.02076792 -0.004528403 0 0.01796293 -0.00442177 0 0.02264791 -0.004528403 0 0.0245279 -0.004528403 0 0.02640795 -0.004528403 0 0.02828794 -0.004528403 0 0.03016793 -0.004528403 0 0.03204792 -0.004528403 0 0.03392791 -0.004528403 0 0.0358079 -0.004528403 0 0.03768795 -0.004528403 0 0.03956794 -0.004528403 0 0.04144793 -0.004528403 0 0.04332792 -0.004528403 0 0.04520791 -0.004528403 0 0.04980456 -0.00663948 0 0.04735982 -0.004498898 0 0.04614794 -0.006007492 0 0.04426795 -0.006007492 0 0.04238796 -0.006007492 0 0.04050791 -0.006007492 0 0.03862792 -0.006007492 0 0.03674793 -0.006007492 0 0.03486794 -0.006007492 0 0.03298795 -0.006007492 0 0.03110796 -0.006007492 0 0.02922791 -0.006007492 0 0.02734792 -0.006007492 0 0.02546793 -0.006007492 0 0.02358794 -0.006007492 0 0.02170795 -0.006007492 0 0.019854 -0.006453573 0 0.01763659 -0.0126 0 0.04786044 -0.01250457 0 0.01989996 -0.01044994 0 0.04789996 -0.007449984 0 0.04789996 -0.01044994 0 0.04980456 -0.01056045 0 0.04707157 -0.0126 0 0.01763659 -0.0126 -0.001999974 0.04707157 -0.0126 -0.001999974 0.01763659 -0.0126 0 0.01763659 -0.004599988 0 0.01484638 -0.004599988 -0.002704441 0.01715016 -0.004599988 -0.002250134 0.0159018 -0.004599988 -4.75832e-4 0.01484638 -0.0126 -0.002704441 0.01763659 -0.0126 0 0.01715016 -0.0126 -0.002250134 0.0159018 -0.0126 -4.75832e-4 0.01771396 -0.0126 -0.002813935 0.01776057 -0.004599988 -0.002860546 0.0145021 -0.01259887 -0.002669215 0.01485311 -0.00459963 -0.002730727 0.01762318 -0.01259952 1.04161e-4 0.01751995 -0.004598975 5.78585e-4 0.04570227 -0.005274951 -0.001999974 0.04570227 -0.005274951 0 0.0465936 -0.005274951 -0.001999974 0.0465936 -0.005274951 0 0.04614794 -0.005949974 0 0.04614794 -0.005949974 -0.001999974 0.04382222 -0.005274951 -0.001999974 0.04382222 -0.005274951 0 0.04471361 -0.005274951 -0.001999974 0.04471361 -0.005274951 0 0.04426795 -0.005949974 -0.001999974 0.04426795 -0.005949974 0 0.04194223 -0.005274951 -0.001999974 0.04194223 -0.005274951 0 0.04283362 -0.005274951 -0.001999974 0.04283362 -0.005274951 0 0.04238796 -0.005949974 -0.001999974 0.04238796 -0.005949974 0 0.04006224 -0.005274951 -0.001999974 0.04006224 -0.005274951 0 0.04095363 -0.005274951 -0.001999974 0.04095363 -0.005274951 0 0.04050791 -0.005949974 0 0.04050791 -0.005949974 -0.001999974 0.03818225 -0.005274951 -0.001999974 0.03818225 -0.005274951 0 0.03907364 -0.005274951 -0.001999974 0.03907358 -0.005274951 0 0.03862792 -0.005949974 -0.001999974 0.03862792 -0.005949974 0 0.03630226 -0.005274951 -0.001999974 0.03630226 -0.005274951 0 0.03719359 -0.005274951 -0.001999974 0.03719359 -0.005274951 0 0.03674793 -0.005949974 -0.001999974 0.03674793 -0.005949974 0 0.03442227 -0.005274951 -0.001999974 0.03442227 -0.005274951 0 0.0353136 -0.005274951 -0.001999974 0.0353136 -0.005274951 0 0.03486794 -0.005949974 -0.001999974 0.03486794 -0.005949974 0 0.03254228 -0.005274951 -0.001999974 0.03254222 -0.005274951 0 0.03343361 -0.005274951 -0.001999974 0.03343361 -0.005274951 0 0.03298795 -0.005949974 -0.001999974 0.03298795 -0.005949974 0 0.03066223 -0.005274951 -0.001999974 0.03066223 -0.005274951 0 0.03155362 -0.005274951 -0.001999974 0.03155362 -0.005274951 0 0.03110796 -0.005949974 -0.001999974 0.03110796 -0.005949974 0 0.02878224 -0.005274951 -0.001999974 0.02878224 -0.005274951 0 0.02967363 -0.005274951 -0.001999974 0.02967363 -0.005274951 0 0.02922791 -0.005949974 -0.001999974 0.02922791 -0.005949974 0 0.02690225 -0.005274951 -0.001999974 0.02690225 -0.005274951 0 0.02779364 -0.005274951 -0.001999974 0.02779364 -0.005274951 0 0.02734792 -0.005949974 -0.001999974 0.02734792 -0.005949974 0 0.02502226 -0.005274951 -0.001999974 0.02502226 -0.005274951 0 0.02591359 -0.005274951 -0.001999974 0.02591359 -0.005274951 0 0.02546793 -0.005949974 0 0.02546793 -0.005949974 -0.001999974 0.02314227 -0.005274951 -0.001999974 0.02314227 -0.005274951 0 0.0240336 -0.005274951 -0.001999974 0.0240336 -0.005274951 0 0.02358794 -0.005949974 -0.001999974 0.02358794 -0.005949974 0 0.02126222 -0.005274951 -0.001999974 0.02126222 -0.005274951 0 0.02215361 -0.005274951 -0.001999974 0.02215361 -0.005274951 0 0.02170795 -0.005949974 -0.001999974 0.02170795 -0.005949974 0 0.02027362 -0.005274951 -0.001999974 0.02027362 -0.005274951 0 0.01982796 -0.005949974 -0.001999974 0.01982796 -0.005949974 0 0.01938223 -0.005274951 -0.001999974 0.01938223 -0.005274951 0 0.01989996 -0.007449984 -0.001999974 0.01989996 -0.01044994 0 0.01989996 -0.007449984 0 0.01989996 -0.01044994 -0.001999974 0.01989996 -0.007449984 -0.001999974 0.04789996 -0.007449984 -0.001999974 0.01989996 -0.007449984 0 0.04789996 -0.007449984 0 0.04789996 -0.007449984 0 0.04789996 -0.01044994 -0.001999974 0.04789996 -0.007449984 -0.001999974 0.04789996 -0.01044994 0 0.01989996 -0.01044994 0 0.04789996 -0.01044994 0 0.01989996 -0.01044994 -0.001999974 0.04789996 -0.01044994 -0.001999974 0.01690042 -0.007785141 -0.01389104 0.01490116 -0.007883727 -0.01389598 0.01489943 -0.008906364 -0.009818375 0.01689982 -0.008996605 -0.009862482 0.01689958 -0.01264452 -0.003209829 0.01491028 -0.01144742 -0.003428161 0.0169 -0.0123291 -0.004211366 0.0169 -0.001449942 -0.03364533 0.01489996 -0.001449942 -0.009245336 0.0169 -0.001449942 -0.009245336 0.01489996 -0.001449942 -0.03364533 0.0169 0.003949999 -0.03514534 0.01489996 5e-5 -0.03514534 0.01489996 0.003949999 -0.03514534 0.0169 5e-5 -0.03514534 0.0169 0.00544995 -0.009245336 0.01489996 0.00544995 -0.03364533 0.01489996 0.00544995 -0.009245336 0.0169 0.00544995 -0.03364533 0.01489996 0.003949999 -0.007745325 0.0169 5e-5 -0.007745325 0.0169 0.003949999 -0.007745325 0.01489996 5e-5 -0.007745325 0.0169 -0.003449976 -0.0314027 0.01489996 -0.003449976 -0.0314027 0.01489996 -0.003449976 -0.02214533 0.0169 -0.003449976 -0.02214533 0.01489996 -0.004628539 -0.02114534 0.0169 -0.004799962 -0.02114534 0.0169 -0.005949974 -0.02214533 0.01489996 -0.005949974 -0.02214533 0.01489996 -0.005949974 -0.03048849 0.0169 -0.005949974 -0.03048849 0.0169 -0.005260646 -0.03200626 0.01489996 -0.005260646 -0.03200626 0.0169 0.009949982 -0.009745299 0.01489996 0.009949982 -0.009745299 0.0169 0.009949982 -0.01814532 0.01489996 0.009949982 -0.01814532 0.01489996 0.007449984 -0.008879303 0.0169 0.007449984 -0.008879303 0.01489996 0.007449984 -0.01814532 0.0169 0.007449984 -0.01814532 0.0169 0.008599996 -0.0191453 0.01489996 0.008771419 -0.0191453 0.01489996 -0.004771411 -0.0191453 0.0169 -0.004599988 -0.0191453 0.0169 -0.003449976 -0.008879303 0.0169 -0.003449976 -0.01814532 0.01489996 -0.003449976 -0.01814532 0.01489996 -0.003449976 -0.008879303 0.01489996 -0.005949974 -0.009745299 0.01489996 -0.005949974 -0.01814532 0.0169 -0.005949974 -0.01814532 0.0169 -0.005949974 -0.009745299 0.01489996 0.009949982 -0.03048849 0.0169 0.009949982 -0.03048849 0.01489996 0.009949982 -0.02214533 0.0169 0.009949982 -0.02214533 0.01489996 0.008699953 -0.02114534 0.0169 0.008699953 -0.02114534 0.0169 0.007449984 -0.02214533 0.01489996 0.007449984 -0.02214533 0.01489996 0.007449984 -0.0314027 0.0169 0.007449984 -0.0314027 0.0169 0.009219229 -0.03204768 0.01489996 0.009290218 -0.03197664 0.01490008 -0.006048083 -0.03049844 0.01689982 -0.005995631 -0.03049308 0.0148999 -0.005381405 -0.03191691 0.0169 -0.00538063 -0.0319162 0.01490002 -0.004979848 -0.00797379 0.01489937 -0.006044924 -0.009732663 0.01689976 -0.00598073 -0.009741544 0.01690036 -0.005041182 -0.0078938 0.01690036 0.01009905 -0.009726107 0.01490002 0.009999096 -0.00973916 0.01489937 0.009005665 -0.007941007 0.01689982 0.008971452 -0.007984578 0.01490038 0.009432435 -0.03195798 0.01689988 0.009378254 -0.03191429 0.01490002 0.009973824 -0.03049075 0.01689928 0.009999275 -0.03049343 0.0168907 -0.004476726 -0.03148424 0.01490575 -0.00448507 -0.03151452 0.01490736 -0.00457102 -0.02226102 0.01688563 -0.00456798 -0.02227008 0.01490706 -0.004864096 -0.02222514 0.01689243 -0.004804491 -0.02229577 0.01689279 -0.004865407 -0.01803004 0.01490753 -0.004804909 -0.01802253 0.0149073 -0.004558145 -0.01803642 0.01689249 -0.004585087 -0.01800996 0.01490622 -0.00453186 -0.009039103 0.01689416 -0.004517555 -0.008952558 0.01689416 0.008517563 -0.008952558 0.01490622 0.008531868 -0.009039103 0.01689249 0.008578121 -0.01801651 0.01491409 0.008557677 -0.01803809 0.01490694 0.008880198 -0.01807463 0.01689231 0.008791327 -0.01798653 0.01490736 0.008828878 -0.02226102 0.01688563 0.008831977 -0.02227008 0.01490044 0.008570313 -0.0222615 0.01689267 0.00856769 -0.02226978 0.01490038 0.008528709 -0.03128349 0.01689952 0.00859934 -0.03128647 0.0148999 0.005493521 -0.009240388 0.01690125 0.00395286 -0.00771892 0.01689153 0.005740106 -0.009181141 0.01490181 0.003979146 -0.007524967 0.01689523 -3.32014e-5 -0.007342576 0.01490211 -0.001661717 -0.009217321 0.01489955 4.41352e-5 -0.007694542 0.01690125 -0.001476407 -0.009242475 0.01690125 -0.001476407 -0.03364819 0.01489955 4.41485e-5 -0.03519594 0.01490229 -0.001657903 -0.03367298 0.01689469 -3.01487e-5 -0.03553265 0.01489996 0.003949999 -0.03514534 0.01689606 0.003980755 -0.03530234 0.01690059 0.005504608 -0.03365206 0.01490813 0.005742192 -0.03369635 0.0493142 -0.006014168 0 0.0493142 -0.006014168 -0.001999974 0.04848575 -0.005185782 0 0.04848575 -0.005185782 -0.001999974 0.04848575 -0.01201421 -0.001999974 0.0493142 -0.01118576 0 0.04848575 -0.01201421 0 0.0493142 -0.01118576 -0.001999974 0.04932725 -0.006003379 0 0.04933124 -0.006000161 -0.001999914 0.04999548 -0.007418632 -3.32452e-7 0.04994416 -0.007423877 -0.001999258 0.04854929 -0.00510782 -0.001999437 0.04849928 -0.005169272 0 0.04707384 -0.004576146 -0.001999914 0.0470764 -0.004551589 -6.69092e-7 0.04854929 -0.01209217 -5.21085e-7 0.04849928 -0.01203066 -0.001999914 0.04707372 -0.01262193 0 0.04707688 -0.01265287 -0.001999318 0.0493288 -0.01119786 -0.002000033 0.04933065 -0.01119929 0 0.04999119 -0.009780883 -0.002000033 0.04994791 -0.009776473 -6.72138e-7</float_array>
          <technique_common>
            <accessor source="#圆角9_009-mesh-positions-array" count="506" stride="3">
              <param name="X" type="float"/>
              <param name="Y" type="float"/>
              <param name="Z" type="float"/>
            </accessor>
          </technique_common>
        </source>
        <source id="圆角9_009-mesh-normals">
          <float_array id="圆角9_009-mesh-normals-array" count="627">1 -5.72508e-7 0 1 0 0 1 4.081e-7 0 1 -6.49452e-7 0 1 1.34155e-7 0 1 0 0 1 3.7455e-7 0 1 5.24052e-7 0 1 0 0 1 0 0 1 5.5853e-7 0 1 -4.28504e-7 0 1 5.09641e-7 0 1 4.64105e-7 0 1 1.3232e-7 0 1 -2.62251e-6 0 1 2.09269e-7 0 1 8.34178e-7 0 1 -1.49554e-6 0 1 -2.09378e-7 0 1 0 0 1 0 0 1 1.62357e-7 0 1 -3.70062e-7 0 1 -5.57417e-7 0 1 0 0 -0.02072507 0.3672272 0.9299004 -0.0114876 0.3562686 0.934313 -0.008047282 0.3521676 0.9359024 0 0 1 0 0 1 0 0 1 0 0 1 0 -0.8645617 -0.5025269 0 -0.864562 -0.5025262 0 -0.8645619 -0.5025264 0 -0.8645616 -0.5025271 0 -1 0 0.01262539 -0.9225512 -0.3856682 0.03349351 -0.932026 -0.3608403 0.004844725 -0.9187508 -0.3948082 0 -0.7071067 -0.7071069 0 -0.707107 -0.7071066 0 -0.7071065 -0.7071071 -0.02427279 -0.3697614 -0.9288097 -0.0133807 -0.3568651 -0.9340602 -0.009327471 -0.3520388 -0.935939 0 0.7071067 -0.707107 0 0.707107 -0.7071066 0 0.7071065 -0.7071071 0.01262605 0.9250516 -0.3796319 0.03349375 0.9141951 -0.4038879 0.004845499 0.9288274 -0.3704813 0 1 0 -0.01512825 0.9164587 0.3998432 -0.007686316 0.9126853 0.408591 -0.004907846 0.9112423 0.4118415 0 0.7071067 0.707107 0 0.7071066 0.7071071 0 0.7071068 0.7071068 -1 -8.12499e-7 0 -1 -4.01211e-7 0 -1 2.65346e-7 0 -1 -1.2087e-6 0 -1 0 0 -1 0 0 -1 0 0 -1 0 0 -1 0 0 -1 0 0 -1 0 0 -1 -2.11736e-7 0 -1 -1.24154e-7 0 -1 -2.65346e-7 0 -1 7.24276e-7 0 -1 3.60402e-7 0 -1 9.29076e-7 0 -1 0 0 -1 0 0 -1 -6.98313e-7 0 -1 -2.91477e-7 0 -1 -1.61532e-7 0 -1 4.28516e-7 0 -1 4.09807e-7 0 -1 1.04268e-6 0 -1 2.93743e-7 0 0 0 -1 0 0 -1 0 0 -1 0 0 -1 0 0 -1 0 0 -1 0 0 -1 0 0 -1 0 0 -1 0 0 -1 0 0 -1 0 0 -1 0 0 -1 0 0 -1 0 0 -1 0 0 -1 0 0 -1 0 0 -1 0 0 -1 0 0 -1 0 0 -1 0 0 -1 0 0 -1 0 0 -1 0 0 -1 0 0 -1 0 0 1 0 0 1 0 0 1 0 0 1 0 0 1 0 0 1 0 0 1 0 0 1 0 0 1 0 0 1 0 0 1 0 0 1 0 0 1 0 0 1 0 0 1 0 1 0 -1.20891e-7 1 0 -2.2501e-7 1 0 0 1 1.95387e-7 -0.02180629 -0.9611076 -0.275312 0.04836755 -0.96883 -0.2429592 0.02062916 -0.9664729 -0.2559391 -0.04950386 -0.9564582 -0.2876407 -0.4757924 -0.8388813 -0.2643855 -0.4757924 -0.8388814 -0.2643855 -5.28029e-4 0.9050253 0.4253574 -0.01086139 0.9105036 0.4133586 -0.01472204 0.9124851 0.4088451 0.007312178 0.8743615 -0.4852202 0.04688161 0.8544529 -0.5174094 0.008819878 0.8736512 -0.4864731 -0.03058302 0.890962 -0.453047 0.009521424 -0.8574287 -0.5145148 0.04684454 -0.8743449 -0.483039 0.01094502 -0.8581157 -0.5133399 -0.02618581 -0.839115 -0.5433235 0.01242238 -0.9381008 0.34614 -0.006905734 -0.9293502 0.3691349 -0.01414668 -0.9258369 0.3776585 -0.03356325 -0.9157827 0.4002695 0.02237695 -0.6982381 -0.7155159 0.005846142 -0.6885953 -0.7251223 0.1117924 -0.7449153 -0.6577261 0.04696023 0.7288503 -0.6830608 0.02521544 0.7412705 -0.6707327 0.1554588 0.6579626 -0.7368296 0.02345806 0.7396582 0.6725738 -0.07931661 0.7906566 0.6071006 0.04416245 0.7277945 0.6843719 0.1488945 0.6595047 0.7368066 -0.008227229 -0.6787635 0.7343109 -0.02197813 -0.6870007 0.7263243 0.07066404 -0.627324 0.7755457 -0.1021511 -0.7306999 0.6750133 0.7071061 0.7071075 0 0.7071051 0.7071085 0 0.7071072 0.7071065 0 0.9182203 0.3953045 -0.0246132 0.9125289 0.4088008 -0.01314902 0.9103316 0.4137847 -0.008883833 0.364042 0.9313383 0.009082019 0.3389826 0.9407162 -0.01199364 0.3732643 0.9275707 0.01692628 0.3979048 0.9166342 0.03812706 0.3645362 -0.9311606 -0.007308065 0.3378927 -0.9410635 0.01509749 0.3743175 -0.9271689 -0.01563352 0.4004551 -0.9155218 -0.03815579 0.9172075 -0.3978705 0.0207262 0.9125776 -0.4087424 0.01148802 0.9108011 -0.4127671 0.008047461 0.001139342 0.3411643 0.940003 -0.01594662 -0.9078828 -0.4189208 0 -0.7071071 -0.7071065 0.001496672 -0.3390781 -0.9407571 0.003414988 0.4165887 -0.9090886 0.01021826 0.4086333 -0.9126415 0.008362174 0.4108089 -0.9116832 0.01519042 0.4027866 -0.9151679 0 0.7071071 -0.7071065 -0.01594543 0.9381927 -0.3457459 0.002505838 0.9073017 0.4204729 0 0.7071065 0.7071072 -0.7780492 0.03895485 0.6269944 -0.7017825 -0.02431732 0.7119762 -0.7456011 0.01075422 0.6663058 -0.6633332 -0.0528208 0.7464576 -0.02512663 0.9176487 0.3965978 -0.08310246 -0.6313062 -0.7710684 -0.08114224 0.7935479 -0.6030737 0.707104 0.7071095 0 0.7071043 -0.7071093 0 0.7071063 -0.7071074 -5.14419e-7 0.7071052 -0.7071083 -2.61883e-7 0.7071074 -0.7071063 -7.76303e-7 0.9042493 0.4269978 0.002509236 0.9059188 -0.4234499 -0.001139938</float_array>
          <technique_common>
            <accessor source="#圆角9_009-mesh-normals-array" count="209" stride="3">
              <param name="X" type="float"/>
              <param name="Y" type="float"/>
              <param name="Z" type="float"/>
            </accessor>
          </technique_common>
        </source>
        <source id="圆角9_009-mesh-map-0">
          <float_array id="圆角9_009-mesh-map-0-array" count="1506">0.593881 0.517491 0.5284897 0.4520735 0.5446504 0.5169331 0.5446504 0.5169331 0.566237 0.527457 0.593881 0.517491 0.5024259 0.4837649 0.5446504 0.5169331 0.5284897 0.4520735 0.4243379 0.4837649 0.5024259 0.4837649 0.5284897 0.4520735 0.593881 0.517491 0.566237 0.527457 0.5647881 0.6591147 0.601537 0.7885418 0.593881 0.517491 0.5647881 0.6591147 0.5413869 0.6954692 0.541387 0.6591147 0.5024259 0.8359634 0.5024259 0.4837649 0.541387 0.6591147 0.5446504 0.5169331 0.5413869 0.6954692 0.5647881 0.6591147 0.541387 0.6591147 0.4243379 0.4837649 0.5284897 0.4520735 0.3982741 0.4520735 0.3328828 0.5174911 0.3821133 0.5169332 0.3982741 0.4520735 0.4243379 0.4837649 0.3982741 0.4520735 0.3821133 0.5169332 0.3605268 0.527457 0.3821133 0.5169332 0.3328828 0.5174911 0.4243379 0.4837649 0.3821133 0.5169332 0.3853769 0.6591147 0.541387 0.6591147 0.5024259 0.4837649 0.5024259 0.8359634 0.3617053 0.69574 0.3853769 0.6591147 0.3617053 0.6588441 0.3328828 0.5174911 0.3617053 0.6588441 0.3605268 0.527457 0.3328828 0.5174911 0.3617053 0.69574 0.3617053 0.6588441 0.3853769 0.6591147 0.4243379 0.8359633 0.4243379 0.4837649 0.601537 0.7885418 0.5647881 0.6591147 0.5647881 0.6954692 0.601537 0.7885418 0.5647881 0.6954692 0.56152 0.8326747 0.5024259 0.8359634 0.5403653 0.8362225 0.5413869 0.6954692 0.601537 0.7885418 0.5517486 0.9089833 0.6587945 0.9099718 0.56152 0.8326747 0.5517486 0.9089833 0.601537 0.7885418 0.5024259 0.8359634 0.5517486 0.9089833 0.5403653 0.8362225 0.5517486 0.9089833 0.56152 0.8326747 0.5403653 0.8362225 0.3853769 0.6954692 0.3863986 0.8362225 0.4243379 0.8359633 0.3328828 0.8558613 0.3652437 0.8326746 0.3617053 0.69574 0.3328828 0.5174911 0.3328828 0.8558613 0.3617053 0.69574 0.4243379 0.8359633 0.3863986 0.8362225 0.3714963 0.8944668 0.3863986 0.8362225 0.3652437 0.8326746 0.3714963 0.8944668 0.3714963 0.8944668 0.5024259 0.8359634 0.4243379 0.8359633 0.5517486 0.9089833 0.5024259 0.8359634 0.3714963 0.8944668 0.3328828 0.8558613 0.3714963 0.8944668 0.3652437 0.8326746 0.1843355 0.2107371 0.1843357 0.190174 0.211233 0.2107706 0.1405047 0.2596452 0.1405047 0.2342129 0.3115916 0.2342129 0.1405047 0.2596452 0.3115916 0.2342129 0.3115916 0.2596452 0.1302718 0.2342129 0.1302718 0.3224099 0.1033747 0.3224099 0.1302718 0.2342129 0.1033747 0.3224099 0.1033747 0.2342129 0.02689713 0.2327481 0 0 0.02689713 0 0 0.2327481 0 0 0.02689713 0.2327481 0.2726781 0.1901602 0.272678 0.2107269 0.2457806 0.2107557 0.3072261 0.1463831 0.3800395 0.1732802 0.3072261 0.1732802 0.1843355 0.1666964 0.1843357 0.1461343 0.211233 0.1667318 0.3072261 0.1171064 0.3800395 0.1440036 0.3072261 0.1440036 0.0371167 0.3354755 0.05821949 0.3354756 0.05824905 0.3623729 0.749471 0.285606 0.7225738 0.6049173 0.7225738 0.285606 0.1843355 0.1887215 0.1843357 0.1681541 0.211233 0.1887358 0.3955007 0.1756597 0.4302759 0.2025568 0.3955007 0.2025568 0.2637187 0.517491 0.2144881 0.5169331 0.1983273 0.4520735 0.2637187 0.517491 0.2360746 0.527457 0.2144881 0.5169331 0.2144881 0.5169331 0.1722635 0.4837649 0.1983273 0.4520735 0.2637187 0.517491 0.2346257 0.6591147 0.2360746 0.527457 0.2713747 0.7885418 0.2346257 0.6591147 0.2637187 0.517491 0.1722635 0.8359634 0.2112246 0.6591147 0.2112246 0.6954692 0.1722635 0.4837649 0.2144881 0.5169331 0.2112246 0.6591147 0.2346257 0.6591147 0.2112246 0.6954692 0.2112246 0.6591147 0.09417551 0.8359633 0.05521446 0.6591147 0.09417557 0.4837649 0.1722635 0.4837649 0.09417557 0.4837649 0.1983273 0.4520735 0.06811171 0.4520735 0.1983273 0.4520735 0.09417557 0.4837649 0.002720415 0.5174911 0.06811171 0.4520735 0.05195093 0.5169332 0.03036445 0.527457 0.002720415 0.5174911 0.05195093 0.5169332 0.06811171 0.4520735 0.09417557 0.4837649 0.05195093 0.5169332 0.09417557 0.4837649 0.05521446 0.6591147 0.05195093 0.5169332 0.002720415 0.5174911 0.03036445 0.527457 0.03154295 0.6588441 0.002720415 0.5174911 0.03154295 0.6588441 0.03154289 0.69574 0.2713747 0.7885418 0.2346258 0.6954692 0.2346257 0.6591147 0.2713747 0.7885418 0.2313577 0.8326747 0.2346258 0.6954692 0.1722635 0.8359634 0.2112246 0.6954692 0.2102029 0.8362225 0.3285868 0.909486 0.2215863 0.9072929 0.2713747 0.7885418 0.2215863 0.9072929 0.2313577 0.8326747 0.2713747 0.7885418 0.2215863 0.9072929 0.2102029 0.8362225 0.2313577 0.8326747 0.2102029 0.8362225 0.2215863 0.9072929 0.1722635 0.8359634 0.05521446 0.6591147 0.03154289 0.69574 0.03154295 0.6588441 0.09417551 0.8359633 0.0562362 0.8362225 0.05521452 0.6954692 0.05521452 0.6954692 0.05521446 0.6591147 0.09417551 0.8359633 0.002720415 0.8558613 0.03154289 0.69574 0.03508138 0.8326746 0.002720415 0.5174911 0.03154289 0.69574 0.002720415 0.8558613 0.04133397 0.8944668 0.0562362 0.8362225 0.09417551 0.8359633 0.0562362 0.8362225 0.04133397 0.8944668 0.03508138 0.8326746 0.04133397 0.8944668 0.09417551 0.8359633 0.1722635 0.8359634 0.2215863 0.9072929 0.04133397 0.8944668 0.1722635 0.8359634 0.002720415 0.8558613 0.03508138 0.8326746 0.04133397 0.8944668 0.1907344 0.2611101 0.2222463 0.2880072 0.1907344 0.2880072 0.8924115 0.1828957 0.9700144 0.2133352 0.9985352 0.1828957 0.9302181 0.2133352 0.9700144 0.2133352 0.8924115 0.1828957 0.9103198 0.3893495 0.9302181 0.5898952 0.9302181 0.2133352 0.9055293 0.2098792 0.9302181 0.2133352 0.8924115 0.1828957 0.8924115 0.225008 0.9103198 0.2376497 0.9055293 0.2098792 0.9302181 0.2133352 0.9055293 0.2098792 0.9103198 0.2376497 0.9103198 0.262933 0.9302181 0.2133352 0.9103198 0.2376497 0.9302181 0.2133352 0.9103198 0.262933 0.9103198 0.2882164 0.8924115 0.2755747 0.9103198 0.2882164 0.9103198 0.262933 0.8924115 0.300858 0.9103198 0.3134996 0.9103198 0.2882164 0.9302181 0.2133352 0.9103198 0.2882164 0.9103198 0.3134996 0.9302181 0.2133352 0.9103198 0.338783 0.9103198 0.3640663 0.8924115 0.3514246 0.9103198 0.3640663 0.9103198 0.338783 0.8924115 0.3767079 0.9103198 0.3893495 0.9103198 0.3640663 0.9103198 0.3893495 0.9302181 0.2133352 0.9103198 0.3640663 0.9103198 0.338783 0.9302181 0.2133352 0.9103198 0.3134996 0.8924115 0.3261413 0.9103198 0.338783 0.9103198 0.3134996 0.8924115 0.2502914 0.9103198 0.262933 0.9103198 0.2376497 0.8924115 0.4272745 0.9103198 0.4399162 0.9103198 0.4146329 0.9103198 0.4146329 0.9103198 0.3893495 0.8924115 0.4019912 0.9700144 0.2133352 0.9958798 0.5887227 0.9985352 0.1828957 0.8924115 0.4525579 0.9103198 0.4651995 0.9103198 0.4399162 0.9302181 0.5898952 0.9103198 0.4399162 0.9103198 0.4651995 0.9103198 0.4904828 0.9302181 0.5898952 0.9103198 0.4651995 0.9302181 0.5898952 0.9709445 0.6140597 0.9700144 0.5898952 0.9302181 0.5898952 0.9103198 0.4146329 0.9103198 0.4399162 0.8924115 0.4778411 0.9103198 0.4904828 0.9103198 0.4651995 0.9709445 0.6140597 0.9958798 0.5887227 0.9700144 0.5898952 0.9200021 0.6140597 0.9302181 0.5898952 0.9103198 0.5663327 0.8924115 0.5031245 0.9103198 0.5157662 0.9103198 0.4904828 0.9302181 0.5898952 0.9103198 0.5157662 0.9103198 0.5410494 0.9103198 0.5157662 0.9302181 0.5898952 0.9103198 0.4904828 0.8924115 0.5284078 0.9103198 0.5410494 0.9103198 0.5157662 0.8924115 0.553691 0.9103198 0.5663327 0.9103198 0.5410494 0.9302181 0.5898952 0.9103198 0.5410494 0.9103198 0.5663327 0.8937836 0.5820725 0.9200021 0.6140597 0.9103198 0.5663327 0.8909466 0.1828957 0.8088868 0.2126661 0.784823 0.1872848 0.8027313 0.2882164 0.8027313 0.262933 0.8088868 0.2126661 0.8027313 0.2376497 0.784823 0.225008 0.8088868 0.2126661 0.8027313 0.262933 0.784823 0.2502914 0.8027313 0.2376497 0.8088868 0.2126661 0.8027313 0.262933 0.8027313 0.2376497 0.8027313 0.2882164 0.8088868 0.2126661 0.8027313 0.3134996 0.8027313 0.3134996 0.784823 0.300858 0.8027313 0.2882164 0.784823 0.2755747 0.8027313 0.262933 0.8027313 0.2882164 0.8027313 0.338783 0.784823 0.3261413 0.8027313 0.3134996 0.8027313 0.338783 0.8027313 0.3134996 0.8088868 0.2126661 0.8027313 0.3640663 0.8027313 0.338783 0.8088868 0.2126661 0.8027313 0.3893495 0.784823 0.3767079 0.8027313 0.3640663 0.8027313 0.4146329 0.784823 0.4019912 0.8027313 0.3893495 0.8226295 0.5898952 0.8027313 0.3893495 0.8088868 0.2126661 0.8088868 0.2126661 0.8027313 0.3893495 0.8027313 0.3640663 0.8027313 0.3640663 0.784823 0.3514246 0.8027313 0.338783 0.8027313 0.4399162 0.8027313 0.4146329 0.8226295 0.5898952 0.8027313 0.4399162 0.784823 0.4272745 0.8027313 0.4146329 0.8882914 0.5887227 0.8624259 0.2133352 0.8909466 0.1828957 0.8226295 0.5898952 0.8027313 0.4904828 0.8027313 0.4651995 0.8226295 0.5898952 0.8027313 0.5663327 0.8027313 0.5410494 0.8226295 0.5898952 0.863356 0.6140597 0.8124136 0.6140597 0.8882914 0.5887227 0.863356 0.6140597 0.8624259 0.5898952 0.8027313 0.4399162 0.8226295 0.5898952 0.8027313 0.4651995 0.8226295 0.5898952 0.8124136 0.6140597 0.8027313 0.5663327 0.784823 0.4778411 0.8027313 0.4651995 0.8027313 0.4904828 0.8226295 0.5898952 0.8027313 0.5157662 0.8027313 0.4904828 0.8027313 0.5157662 0.784823 0.5031245 0.8027313 0.4904828 0.8027313 0.5410494 0.784823 0.5284078 0.8027313 0.5157662 0.784823 0.553691 0.8027313 0.5410494 0.8027313 0.5663327 0.786195 0.5820725 0.8027313 0.5663327 0.8124136 0.6140597 0.8027313 0.5410494 0.8027313 0.5157662 0.8226295 0.5898952 0.8027313 0.4399162 0.8027313 0.4651995 0.784823 0.4525579 0 0.4224929 0.3958582 0.4224929 0 0.4479252 0.3958582 0.4224929 0.3958582 0.4479252 0 0.4479252 0.0570119 0.3085246 0.07314324 0.285812 0.05168735 0.2769705 0.0570119 0.3085246 0.08844703 0.3134424 0.07314324 0.285812 3.31433e-4 0.2770141 0.005249202 0.3084493 0.02796185 0.2923179 0.0368033 0.3137738 0.02796185 0.2923179 0.005249202 0.3084493 0.272678 0.1005296 0.2457808 0.06018382 0.2457808 0.1005296 0.1405047 0.421028 0.5170646 0.3955957 0.1405047 0.3955957 0.2112327 0.1005296 0.1843356 0.06018382 0.1843356 0.1005296 0.1405047 0.3941309 0.5170646 0.3686986 0.1405047 0.3686986 0.7156147 0.09040987 0.6603404 0.09041112 0.6602601 0.1173082 0.7156147 0.09040987 0.6602601 0.1173082 0.7155894 0.1173081 0.5596218 0.0292766 0.5734665 0.02927613 0.5666274 0.05617368 0.9884697 0.02689713 0.6603247 0 0.6603247 0.02689713 0 0.2611101 0.0524494 0.2342129 0 0.2342129 0.7536984 0.6137511 0.7805955 0.285606 0.7536984 0.285606 0 0.3354756 0.02689713 0.387925 0.02689713 0.3354756 0.7833581 0.261148 0.6603247 0.2342509 0.6603247 0.261148 0.405503 0.3403366 0.2932996 0.3149043 0.2932996 0.3403366 0.7732927 0.07210266 0.6603247 0.04520553 0.6603247 0.07210266 0.6914492 0.4102208 0.7183464 0.285606 0.6914492 0.285606 0.6603247 0.4102208 0.6872218 0.285606 0.6603247 0.285606 0.4062676 0.3418015 0.2932996 0.3418015 0.2932996 0.3672338 0.405503 0.2880072 0.2932996 0.2880072 0.2932996 0.3134395 0.7833581 0.2097929 0.6603247 0.1828957 0.6603247 0.2097929 0.2726779 0.1887069 0.2726783 0.1681103 0.2457808 0.1887074 0.8570595 0.1637781 0.8570595 0.1356113 0.8301624 0.135509 0.8301624 0.135509 0.8301624 0.1637436 0.8570595 0.1637781 0.5877807 0 0.5596165 0 0.5595142 0.02689707 0.5595142 0.02689707 0.5877503 0.02689707 0.5877807 0 0.2726779 0.2327476 0.2726782 0.2121659 0.2457807 0.2327589 0.2457807 0.2327589 0.2726782 0.2121659 0.2457808 0.2121942 0.1903082 0.341806 0.2227565 0.3148953 0.1907318 0.3149041 0.4669252 0.08545684 0.4996269 0.05854439 0.4676506 0.05855256 0.4672714 0.0878213 0.4676522 0.1147411 0.4998959 0.114733 0.4672714 0.0878213 0.4998959 0.114733 0.4992305 0.08782923 0.5616226 0.08546859 0.5940153 0.05854755 0.5618041 0.05855321 0.5616226 0.08546859 0.593373 0.08545035 0.5940153 0.05854755 0.6224433 0.05617374 0.6066873 0.0292766 0.6066873 0.05617374 0.1843355 0.2327561 0.1843357 0.2121939 0.211233 0.2327939 0.03708243 0.3782327 0.05822032 0.3782331 0.05823332 0.4051303 0.05823332 0.4051303 0.03713077 0.4051302 0.03708243 0.3782327 0.07020479 0.3354752 0.09134232 0.3354756 0.09135723 0.3623728 0.09135723 0.3623728 0.07025313 0.3623726 0.07020479 0.3354752 0.2457807 0.1666974 0.2457808 0.1461343 0.2726782 0.1667309 0.5413869 0.6954692 0.5647881 0.6954692 0.5647881 0.6591147 0.3617053 0.69574 0.3853769 0.6954692 0.3853769 0.6591147 0.3853769 0.6591147 0.3853769 0.6954692 0.4243379 0.8359633 0.1843357 0.190174 0.2112327 0.1901744 0.211233 0.2107706 0.2457809 0.190174 0.2726781 0.1901602 0.2457806 0.2107557 0.3072261 0.1463831 0.3800395 0.1463831 0.3800395 0.1732802 0.1843357 0.1461343 0.2112327 0.1461346 0.211233 0.1667318 0.4041581 0.2611101 0.2932996 0.2865424 0.2932996 0.2611101 0.2932996 0.2865424 0.4041581 0.2611101 0.4041581 0.2865424 0.1228904 0.2121134 0.1497875 0.2121142 0.1228902 0.2327746 0.1497876 0.2327611 0.1228902 0.2327746 0.1497875 0.2121142 0.3072261 0.1171064 0.3800395 0.1171064 0.3800395 0.1440036 0.03713077 0.3623727 0.0371167 0.3354755 0.05824905 0.3623729 0.749471 0.285606 0.749471 0.6049173 0.7225738 0.6049173 0.1843357 0.1681541 0.2112327 0.1681541 0.211233 0.1887358 0.3955007 0.1756597 0.4302759 0.1756597 0.4302759 0.2025568 0.1722635 0.8359634 0.1722635 0.4837649 0.2112246 0.6591147 0.2346257 0.6591147 0.2346258 0.6954692 0.2112246 0.6954692 0.05521446 0.6591147 0.05521452 0.6954692 0.03154289 0.69574 0.1907344 0.2611101 0.2222463 0.2611101 0.2222463 0.2880072 0.9103198 0.3893495 0.9103198 0.4146329 0.9302181 0.5898952 0.9700144 0.2133352 0.9700144 0.5898952 0.9958798 0.5887227 0.9302181 0.5898952 0.9200021 0.6140597 0.9709445 0.6140597 0.8909466 0.1828957 0.8624259 0.2133352 0.8088868 0.2126661 0.8226295 0.5898952 0.8027313 0.4146329 0.8027313 0.3893495 0.8882914 0.5887227 0.8624259 0.5898952 0.8624259 0.2133352 0.8226295 0.5898952 0.8624259 0.5898952 0.863356 0.6140597 0.06144529 6.93219e-6 0.1690351 -7.56919e-4 0.06144475 0.05827939 0.1690351 -7.56919e-4 0.169034 0.05767834 0.06144475 0.05827939 0.272678 0.1005296 0.272678 0.06018382 0.2457808 0.06018382 0.1405047 0.421028 0.5170646 0.421028 0.5170646 0.3955957 0.2112327 0.1005296 0.2112327 0.06018382 0.1843356 0.06018382 0.1405047 0.3941309 0.5170646 0.3941309 0.5170646 0.3686986 0.9884697 0.02689713 0.9884697 0 0.6603247 0 0 0.2611101 0.0524494 0.2611101 0.0524494 0.2342129 0.7536984 0.6137511 0.7805955 0.6137511 0.7805955 0.285606 0 0.3354756 0 0.387925 0.02689713 0.387925 0.7833581 0.261148 0.7833581 0.2342509 0.6603247 0.2342509 0.405503 0.3403366 0.405503 0.3149043 0.2932996 0.3149043 0.7732927 0.07210266 0.7732927 0.04520553 0.6603247 0.04520553 0.7183464 0.285606 0.6914492 0.4102208 0.7183464 0.4102208 0.6872218 0.285606 0.6603247 0.4102208 0.6872218 0.4102208 0.4062676 0.3672338 0.4062676 0.3418015 0.2932996 0.3672338 0.405503 0.3134395 0.405503 0.2880072 0.2932996 0.3134395 0.7833581 0.2097929 0.7833581 0.1828957 0.6603247 0.1828957 0.2457808 0.1887074 0.2726783 0.1681103 0.2457807 0.1681461 0.2223074 0.3418156 0.2227565 0.3148953 0.1903082 0.341806 0.4992294 0.08546447 0.4996269 0.05854439 0.4669252 0.08545684 0.6224433 0.05617374 0.6224433 0.0292766 0.6066873 0.0292766 0.5618041 0.08782982 0.5618041 0.114727 0.5775601 0.08782982 0.5775601 0.114727 0.5775601 0.08782982 0.5618041 0.114727 0.1843357 0.2121939 0.2112327 0.2121938 0.211233 0.2327939 0.2457808 0.1461343 0.272678 0.1461346 0.2726782 0.1667309</float_array>
          <technique_common>
            <accessor source="#圆角9_009-mesh-map-0-array" count="753" stride="2">
              <param name="S" type="float"/>
              <param name="T" type="float"/>
            </accessor>
          </technique_common>
        </source>
        <vertices id="圆角9_009-mesh-vertices">
          <input semantic="POSITION" source="#圆角9_009-mesh-positions"/>
        </vertices>
        <lines count="84">
          <input semantic="VERTEX" source="#圆角9_009-mesh-vertices" offset="0"/>
          <p>195 196 248 247 449 448 254 253 258 257 262 261 266 265 270 269 274 273 278 277 282 281 286 285 290 289 298 297 302 301 306 305 310 309 314 313 318 317 322 321 326 325 334 333 338 337 392 393 425 424 445 444 454 455 5 4 9 8 13 12 17 16 21 20 25 24 29 28 33 32 457 456 1 0 403 402 419 418 452 453 3 2 71 72 465 464 256 255 260 259 264 263 268 267 272 271 280 279 284 283 288 287 292 291 296 295 300 299 304 303 308 307 316 315 320 319 324 323 328 327 332 331 336 335 340 339 405 404 451 450 463 462 11 10 15 14 19 18 23 22 27 26 31 30 275 276 387 386 6 7 74 73 442 443 447 446 459 458 461 460 294 293 312 311 330 329 342 341</p>
        </lines>
        <triangles material="夹子-material" count="251">
          <input semantic="VERTEX" source="#圆角9_009-mesh-vertices" offset="0"/>
          <input semantic="NORMAL" source="#圆角9_009-mesh-normals" offset="1"/>
          <input semantic="TEXCOORD" source="#圆角9_009-mesh-map-0" offset="2" set="0"/>
          <p>59 0 0 53 1 1 35 2 2 35 2 3 45 3 4 59 0 5 50 4 6 35 2 7 53 1 8 49 5 9 50 4 10 53 1 11 59 0 12 45 3 13 46 6 14 52 7 15 59 0 16 46 6 17 40 1 18 47 8 19 51 9 20 50 4 21 47 8 22 35 2 23 40 1 24 46 6 25 47 8 26 49 5 27 53 1 28 60 1 29 55 10 30 36 11 31 60 1 32 49 5 33 60 1 34 36 11 35 34 12 36 36 11 37 55 10 38 49 5 39 36 11 40 37 13 41 47 8 42 50 4 43 51 9 44 44 14 45 37 13 46 38 15 47 55 10 48 38 15 49 34 12 50 55 10 51 44 14 52 38 15 53 37 13 54 48 16 55 49 5 56 52 7 57 46 6 58 41 17 59 52 7 60 41 17 61 61 18 62 51 9 63 39 1 64 40 1 65 52 7 66 56 19 67 58 20 68 61 18 69 56 19 70 52 7 71 51 9 72 56 19 73 39 1 74 56 19 75 61 18 76 39 1 77 42 21 78 62 22 79 48 16 80 54 23 81 43 24 82 44 14 83 55 10 84 54 23 85 44 14 86 48 16 87 62 22 88 57 25 89 62 22 90 43 24 91 57 25 92 57 25 93 51 9 94 48 16 95 56 19 96 51 9 97 57 25 98 54 23 99 57 25 100 43 24 101 66 26 102 64 27 103 65 28 104 70 29 105 67 30 106 69 31 107 70 29 108 69 31 109 68 32 110 76 33 111 77 34 112 78 35 113 76 33 114 78 35 115 75 36 116 79 37 117 82 37 118 80 37 119 81 37 120 82 37 121 79 37 122 83 38 123 85 39 124 86 40 125 90 41 126 87 42 127 89 43 128 94 44 129 92 45 130 93 46 131 106 47 132 104 48 133 105 49 134 107 50 135 109 51 136 110 52 137 114 53 138 111 53 139 113 53 140 118 54 141 116 55 142 117 56 143 120 57 144 122 58 145 119 59 146 129 60 147 125 61 148 130 62 149 129 60 150 145 63 151 125 61 152 125 61 153 146 64 154 130 62 155 129 60 156 144 65 157 145 63 158 128 66 159 144 65 160 129 60 161 149 67 162 143 68 163 137 69 164 146 64 165 125 61 166 143 68 167 144 65 168 137 69 169 143 68 170 148 70 171 135 71 172 147 72 173 146 64 174 147 72 175 130 62 176 131 73 177 130 62 178 147 72 179 132 74 180 131 73 181 136 75 182 124 76 183 132 74 184 136 75 185 131 73 186 147 72 187 136 75 188 147 72 189 135 71 190 136 75 191 132 74 192 124 76 193 134 77 194 132 74 195 134 77 196 142 78 197 128 66 198 139 69 199 144 65 200 128 66 201 150 79 202 139 69 203 149 67 204 137 69 205 138 80 206 123 69 207 127 81 208 128 66 209 127 81 210 150 79 211 128 66 212 127 81 213 138 80 214 150 79 215 138 80 216 127 81 217 149 67 218 135 71 219 142 78 220 134 77 221 148 70 222 151 82 223 141 69 224 141 69 225 135 71 226 148 70 227 133 83 228 142 78 229 140 84 230 132 74 231 142 78 232 133 83 233 126 85 234 151 82 235 148 70 236 151 82 237 126 85 238 140 84 239 126 85 240 148 70 241 149 67 242 127 81 243 126 85 244 149 67 245 133 83 246 140 84 247 126 85 248 153 1 249 155 1 250 154 1 251 157 86 252 176 87 253 156 88 254 174 89 255 176 87 256 157 86 257 185 90 258 175 91 259 174 89 260 159 92 261 174 89 262 157 86 263 158 93 264 179 94 265 159 92 266 174 89 267 159 92 268 179 94 269 180 95 270 174 89 271 179 94 272 174 89 273 180 95 274 181 95 275 161 95 276 181 95 277 180 95 278 162 95 279 182 95 280 181 95 281 174 89 282 181 95 283 182 95 284 174 89 285 183 96 286 184 97 287 164 98 288 184 97 289 183 96 290 165 95 291 185 90 292 184 97 293 185 90 294 174 89 295 184 97 296 183 96 297 174 89 298 182 95 299 163 95 300 183 96 301 182 95 302 160 95 303 180 95 304 179 94 305 167 99 306 187 100 307 186 101 308 186 101 309 185 90 310 166 95 311 176 87 312 178 102 313 156 88 314 168 103 315 188 104 316 187 100 317 175 91 318 187 100 319 188 104 320 189 95 321 175 91 322 188 104 323 175 91 324 194 105 325 177 106 326 175 91 327 186 101 328 187 100 329 169 95 330 189 95 331 188 104 332 194 105 333 178 102 334 177 106 335 173 107 336 175 91 337 192 108 338 170 95 339 190 95 340 189 95 341 175 91 342 190 95 343 191 109 344 190 95 345 175 91 346 189 95 347 171 95 348 191 109 349 190 95 350 172 110 351 192 108 352 191 109 353 175 91 354 191 109 355 192 108 356 193 111 357 173 107 358 192 108 359 229 112 360 228 113 361 198 114 362 225 115 363 226 116 364 228 113 365 227 117 366 197 118 367 228 113 368 226 116 369 199 119 370 227 117 371 228 113 372 226 116 373 227 117 374 225 115 375 228 113 376 224 120 377 224 120 378 201 119 379 225 115 380 200 119 381 226 116 382 225 115 383 223 121 384 202 119 385 224 120 386 223 121 387 224 120 388 228 113 389 222 122 390 223 121 391 228 113 392 221 123 393 204 119 394 222 122 395 220 119 396 205 119 397 221 123 398 232 124 399 221 123 400 228 113 401 228 113 402 221 123 403 222 122 404 222 122 405 203 119 406 223 121 407 219 119 408 220 119 409 232 124 410 219 119 411 206 119 412 220 119 413 230 125 414 231 126 415 229 112 416 232 124 417 217 119 418 218 119 419 232 124 420 214 119 421 215 119 422 232 124 423 234 119 424 212 119 425 230 125 426 234 119 427 233 119 428 219 119 429 232 124 430 218 119 431 232 124 432 212 119 433 214 119 434 208 119 435 218 119 436 217 119 437 232 124 438 216 119 439 217 119 440 216 119 441 209 119 442 217 119 443 215 119 444 210 119 445 216 119 446 211 119 447 215 119 448 214 119 449 213 119 450 214 119 451 212 119 452 215 119 453 216 119 454 232 124 455 219 119 456 218 119 457 207 119 458 235 37 459 238 37 460 237 37 461 238 37 462 236 37 463 237 37 464 241 127 465 242 128 466 239 129 467 241 127 468 240 130 469 242 128 470 243 37 471 245 37 472 246 37 473 244 37 474 246 37 475 245 37 476 345 1 477 346 1 478 343 1 479 350 37 480 347 37 481 348 37 482 353 69 483 354 69 484 351 69 485 358 53 486 355 53 487 356 53 488 361 131 489 360 132 490 359 133 491 361 131 492 359 133 493 362 134 494 365 135 495 363 135 496 364 136 497 366 53 498 367 53 499 368 53 500 372 119 501 373 119 502 370 119 503 374 37 504 375 37 505 377 37 506 381 95 507 380 95 508 379 95 509 385 37 510 383 37 511 382 37 512 391 53 513 389 53 514 388 53 515 394 37 516 397 37 517 396 37 518 401 53 519 398 53 520 399 53 521 406 37 522 408 37 523 407 37 524 411 53 525 410 53 526 413 53 527 416 37 528 414 37 529 415 37 530 423 53 531 421 53 532 420 53 533 428 137 534 426 138 535 429 139 536 431 140 537 430 141 538 433 142 539 433 142 540 432 143 541 431 140 542 436 144 543 435 145 544 434 146 545 434 146 546 437 147 547 436 144 548 440 148 549 438 149 550 441 150 551 441 150 552 438 149 553 439 151 554 468 152 555 469 153 556 466 154 557 470 155 558 471 156 559 472 157 560 476 158 561 474 159 562 477 160 563 476 158 564 477 160 565 475 161 566 479 162 567 481 163 568 478 164 569 479 162 570 480 165 571 481 163 572 482 166 573 485 167 574 484 168 575 493 169 576 491 170 577 492 171 578 494 172 579 496 173 580 497 174 581 497 174 582 495 175 583 494 172 584 498 176 585 500 177 586 501 178 587 501 178 588 499 179 589 498 176 590 505 180 591 503 181 592 504 182 593 40 1 594 41 17 595 46 6 596 44 14 597 42 21 598 37 13 599 37 13 600 42 21 601 48 16 602 64 27 603 63 183 604 65 28 605 84 184 606 83 38 607 86 40 608 90 41 609 88 185 610 87 42 611 92 45 612 91 186 613 93 46 614 98 95 615 97 95 616 95 95 617 97 95 618 98 95 619 96 95 620 100 187 621 99 188 622 101 189 623 102 190 624 101 189 625 99 188 626 106 47 627 103 191 628 104 48 629 108 192 630 107 50 631 110 52 632 114 53 633 112 53 634 111 53 635 116 55 636 115 193 637 117 56 638 120 57 639 121 194 640 122 58 641 149 67 642 146 64 643 143 68 644 144 65 645 139 69 646 137 69 647 135 71 648 141 69 649 142 78 650 153 1 651 152 1 652 155 1 653 185 90 654 186 101 655 175 91 656 176 87 657 177 106 658 178 102 659 175 91 660 173 107 661 194 105 662 229 112 663 231 126 664 228 113 665 232 124 666 220 119 667 221 123 668 230 125 669 233 119 670 231 126 671 232 124 672 233 119 673 234 119 674 250 195 675 249 196 676 252 197 677 249 196 678 251 198 679 252 197 680 345 1 681 344 1 682 346 1 683 350 37 684 349 37 685 347 37 686 353 69 687 352 69 688 354 69 689 358 53 690 357 53 691 355 53 692 366 53 693 369 53 694 367 53 695 372 119 696 371 119 697 373 119 698 374 37 699 376 37 700 375 37 701 381 95 702 378 95 703 380 95 704 385 37 705 384 37 706 383 37 707 391 53 708 390 53 709 389 53 710 394 37 711 395 37 712 397 37 713 398 53 714 401 53 715 400 53 716 408 37 717 406 37 718 409 37 719 412 53 720 411 53 721 413 53 722 417 37 723 416 37 724 415 37 725 423 53 726 422 53 727 421 53 728 429 139 729 426 138 730 427 199 731 467 200 732 469 153 733 468 152 734 473 201 735 471 156 736 470 155 737 482 166 738 483 202 739 485 167 740 489 203 741 487 204 742 486 205 743 488 206 744 486 205 745 487 204 746 491 170 747 490 207 748 492 171 749 503 181 750 502 208 751 504 182 752</p>
        </triangles>
      </mesh>
    </geometry>
  </library_geometries>
  <library_visual_scenes>
    <visual_scene id="场景" name="场景">
      <node id="tmp_export_圆角9_009" name="tmp_export_圆角9.009" type="NODE">
        <matrix sid="transform">1 0 0 0 0 1 0 0 0 0 1 0 0 0 0 1</matrix>
        <instance_geometry url="#圆角9_009-mesh" name="tmp_export_圆角9.009">
          <bind_material>
            <technique_common>
              <instance_material symbol="夹子-material" target="#夹子-material">
                <bind_vertex_input semantic="RhinoUVMap" input_semantic="TEXCOORD" input_set="0"/>
              </instance_material>
            </technique_common>
          </bind_material>
        </instance_geometry>
      </node>
    </visual_scene>
  </library_visual_scenes>
  <scene>
    <instance_visual_scene url="#场景"/>
  </scene>
</COLLADA>